<?xml version="1.0" encoding="utf-8"?>
<!-- Generator: Adobe Illustrator 20.1.0, SVG Export Plug-In . SVG Version: 6.00 Build 0)  -->
<svg version="1.1" id="artwork" xmlns="http://www.w3.org/2000/svg" xmlns:xlink="http://www.w3.org/1999/xlink" x="0px" y="0px"
	 viewBox="0 0 424.8 413.8" enable-background="new 0 0 424.8 413.8" xml:space="preserve">
<g>
	<path fill="#FFFFFF" d="M424.8,206.9c0,51.6-16.7,104.1-48.7,140.3c-38.9,44-111.6,66.6-175.8,66.6c-117,0-185.5-104.3-199.2-206.9
		c-8-59.8,29-103.6,71.3-141.4C110.1,31.7,157.8,0,213,0c71.8,0,128.3,45.2,166.6,98.5C403.6,132.1,424.8,162.7,424.8,206.9z"/>
	<g>
		<g>
			<g>
				<g>
					<path fill="#294885" d="M233.1,167.3c-0.2-0.7-0.6-2.8-0.4-3.3c0.2-0.6,0.6-1.7,0.9-2.6c1.6-4.8,0.9-9.8,0.4-10.9
						c-0.1-0.2-0.3-0.3-0.5-0.3c-2.3-0.4-4.2,1.1-6.6,3.9c-0.9,1.1-2,2-2.2,0.4c-0.2-1,0.6-3.1-0.3-3c-2.2,0.2-3.6,1.5-4.9,3.1
						c-1,1.3-1,1.9-2.1,2c-2.2,0.1-3.2,0.2-5,0.6c-1.7,0.4-3.2,1-4.2,1.7c-1.3,0.8-2.2,2-5.3,2c-4.8,0-11,0.2-13.3,0.6
						c-2.4,0.5-2.8,2-1.5,4.2c1.5,2.5,2,8,5.1,8.8c0.8,1.7,1.4,3.1,2.2,3c0.3-0.1,0.6-0.9,0.8-1.7c0.4-1.7,2.1-1.8,3.2-1.8
						c2.8-0.1,4.9,0,6.7,1.1c1.3,0.7,1.9,2,1.7,2.5c-0.4,0.9-1.3-0.3-6.1,0.6c-2.7,0.5-4.3,2-7.7,2c-5.1,0-7.6-3.5-8.5-6.6
						c-0.5-1.6-0.8-3-2.6-1.3c-2.3,2.2-2.5,6.4-0.1,8.9c1.6,1.7,3.9,2.6,6.6,2.8c0.8,0.1,2.5,0.1,3.9,0c0,0-0.4,1.1,0.2,2
						c0.6,0.9,2.3,1.7,5.1,0.8c4-1.2,7.4-2.3,10.2-0.2c0.5,0.4,1.1,1.1,1.1,1.5c0,0.8-3,3.2-11.4,5.4c-10.3,2.8-12.8,9.7-11.7,13.5
						c0.1,0.3,0.3,0.7,0.6,0.7s1.9-0.9,2.8-1.1c1.8-0.3,1,1,0.8,2.6c-0.8,5.7,7.4,13,14.6,18c4,2.8,6.1,3.7,7.1,3.7s3.2-0.8,7.1-3.7
						c11.2-8.3,18.7-19.9,17.5-26.1c-0.7-3.5-2.5-5.7-1.6-6.2c1-0.6,3.2,1,3.7,0.7c1.1-0.7,1.6-7.2-0.4-14
						C236.6,175.2,234.4,172.6,233.1,167.3z M212,165.2c-1,0.1-2.1-0.4-1.9-0.7c0.1-0.1,0.4-0.5,0.2-1c-0.3-0.6-1.3-0.7-1.9-0.2
						c0.5-1.2,2.2-1.9,3.6-1.9c2,0,2.4,1.1,2.3,2C214.1,164.3,213.2,165,212,165.2z"/>
					<g>
						<path fill="#3979B5" d="M119.1,163.8c1.8-13,9.1-22.7,17.2-27.3c13-7.4,25.9-4.6,34.9-2.6c1.3,0.3,2.4,0.1,2.8-0.7
							c0.3-0.7,0.1-1.4-1-2.6c-4.2-4.5-14-14.2-15.2-15.2c-3-2.5-7.9-3.9-11.7-3.9c-22,0-35.8,16.7-35.8,35.3
							c0,4.9,1.4,11.2,2.9,14.7c1.4,3.3,2.9,6.2,4.1,6.2C118.8,167.7,118.9,165.7,119.1,163.8z"/>
						<path fill="#3979B5" d="M245.3,127.9c-0.6-0.5-0.8-1.4-0.6-2.8c0.9-9.3,0-18.5-1.9-22.8c-2.4-5.5-8.1-13.6-12.6-18.3
							c-5.8-6.1-7.9-7.8-10.6-9.8c-0.7-0.5-2.1-1.3-2.1-2c0-0.8,1.1-1.5,2.5-2.2c2.5-1.2,6.2-2.8,12.9-3.3c8-0.7,19.4,1,28.1,12.1
							c4.9,6.2,5.5,13.7,5.5,18.8c0,6.1-1,11.5-3.9,14.7c-4.3,4.7-13.4,13.8-14.6,14.8C247.5,127.6,246.1,128.6,245.3,127.9z"/>
						<path fill="#3979B5" d="M276.9,232c22,1.4,37.6-17.1,37.6-35.3c0-6.9-1-10.6-2.8-14.4c-1.6-3.3-3.4-5.5-4.4-5.5
							c-1.1,0-1.4,1.5-1.5,2.5c-4.3,22.3-20,35.2-30.7,35.4c-3.1,0.1-7-0.7-7.3-2.2c-0.5-2.2,3.3-6.8,3.3-15.6
							c0-3.5-1.6-10-11.3-10.3c-8.6-0.3-12.8,7.7-12.8,14.9C246.8,216.2,257.7,230.8,276.9,232z"/>
					</g>
					<g>
						<path fill="#255C9E" d="M147.9,232c-22,1.4-37.6-17.1-37.6-35.3c0-6.9,1-10.6,2.8-14.4c1.6-3.3,3.4-5.5,4.4-5.5
							c1.1,0,1.4,1.5,1.5,2.5c4.3,22.3,20,35.2,30.7,35.4c3.1,0.1,7-0.7,7.3-2.2c0.5-2.2-3.3-6.8-3.3-15.6c0-3.5,1.6-10,11.3-10.3
							c8.6-0.3,12.8,7.7,12.8,14.9C178.1,216.2,167.2,230.8,147.9,232z"/>
						<path fill="#255C9E" d="M179.5,127.9c0.6-0.5,0.8-1.4,0.6-2.8c-0.9-9.3,0-18.5,1.9-22.8c2.4-5.5,8.1-13.6,12.6-18.3
							c5.8-6.1,7.9-7.8,10.6-9.8c0.7-0.5,2.1-1.3,2.1-2c0-0.8-1.1-1.5-2.5-2.2c-2.5-1.2-6.2-2.8-12.9-3.3c-8-0.7-19.4,1-28.1,12.1
							c-4.9,6.2-5.5,13.7-5.5,18.8c0,6.1,1,11.5,3.9,14.7c4.3,4.7,13.4,13.8,14.6,14.8C177.3,127.6,178.7,128.6,179.5,127.9z"/>
						<path fill="#255C9E" d="M305.7,163.8c-1.8-13-9.1-22.7-17.2-27.3c-13-7.4-25.9-4.6-34.9-2.6c-1.3,0.3-2.4,0.1-2.8-0.7
							c-0.3-0.7-0.1-1.4,1-2.6c4.2-4.5,14-14.2,15.2-15.2c3-2.5,7.9-3.9,11.7-3.9c22,0,35.8,16.7,35.8,35.3c0,4.9-1.4,11.2-2.9,14.7
							c-1.4,3.3-2.9,6.2-4.1,6.2C306.1,167.7,305.9,165.7,305.7,163.8z"/>
					</g>
					<g>
						<path fill="#F9B200" d="M154.9,136.8c9.8,0,22,3.4,26.3,6.7c1.4,1,1.8,2.6-0.1,4.5c-2.5,2.5-7.5,7.5-9.5,9.5
							c-1.8,1.8-2.5,2.9-2.5,6.6c0,5.6,0,12.2,0,14.6c0,1.8-0.7,2.5-3.3,2.8c-0.7,0.1-2,0.2-3.1,0.3c-3.5,0.3-8.1,1.6-11.4,6.7
							c-4.2,6.5-1.6,15-0.5,18.2c0.8,2.4,0.7,3.8-2.9,3.1c-9.9-2-25.2-20.2-24.3-40.4C124.6,148.4,138.4,136.8,154.9,136.8z"/>
						<path fill="#F9B200" d="M269.9,136.8c-9.8,0-22,3.4-26.3,6.7c-1.4,1-1.8,2.6,0.1,4.5c2.5,2.5,7.5,7.5,9.5,9.5
							c1.8,1.8,2.5,2.9,2.5,6.6c0,5.6,0,12.2,0,14.6c0,1.8,0.7,2.5,3.3,2.8c0.7,0.1,2,0.2,3.1,0.3c3.5,0.3,8.1,1.6,11.4,6.7
							c4.2,6.5,1.6,15,0.5,18.2c-0.8,2.4-0.7,3.8,2.9,3.1c9.9-2,25.2-20.2,24.3-40.4C300.3,148.4,286.5,136.8,269.9,136.8z"/>
						<path fill="#F9B200" d="M229.6,238.8c4.9-3.7,7.6-6.2,11.7-10.4c1.9-1.9,4.1-2.2,6.4,0c3.2,3.1,7.1,5.6,12.8,6
							c2.3,0.2,3.5-0.5,5.1,0.2c0.8,0.4,1.6,1.5,1.7,3.4c0.2,7.5-3.4,16.3-14.3,18.2c-7.1,1.3-14.2-0.9-17.7-4.2
							c-2.4-2.3-5.1-4.8-6.6-6.9C227,243.1,227.1,240.7,229.6,238.8z"/>
						<path fill="#F9B200" d="M195.3,238.8c-4.9-3.7-7.6-6.2-11.7-10.4c-1.9-1.9-4.1-2.2-6.4,0c-3.2,3.1-7.1,5.6-12.8,6
							c-2.3,0.2-3.5-0.5-5.1,0.2c-0.8,0.4-1.6,1.5-1.7,3.4c-0.2,7.5,3.4,16.3,14.3,18.2c7.1,1.3,14.2-0.9,17.7-4.2
							c2.4-2.3,5.1-4.8,6.6-6.9C197.8,243.1,197.8,240.7,195.3,238.8z"/>
					</g>
					<g>
						<path fill="#F49E00" d="M185.8,107c0.9-4.7,6.8-13.6,12.6-19.6c5.9-6.1,11-10.9,14.1-10.9s8.2,4.8,14.1,10.9
							c5.7,6,11.6,14.9,12.6,19.6c0.9,4.7,2.2,14.5-1.2,28.7c-1,4-3.2,4.4-5.7,4.4c-1.1,0-38.4,0-39.5,0c-2.5,0-4.7-0.4-5.7-4.4
							C183.5,121.5,184.8,111.7,185.8,107z"/>
						<path fill="#F49E00" d="M212.4,247.4c2.8,0,5-1.7,6.9-2c1.6-0.2,2.7,0.3,4.1,1.8c2.1,2.1,5.2,5.5,7.3,8
							c1.5,1.8,3.5,4.8,0.7,11.9c-3.4,8.7-15.5,20.1-19.1,20.1s-15.7-11.4-19.1-20.1c-2.8-7.1-0.7-10.1,0.7-11.9
							c2-2.5,5.1-5.9,7.3-8c1.5-1.5,2.5-2,4.1-1.8C207.4,245.7,209.6,247.4,212.4,247.4z"/>
					</g>
				</g>
			</g>
			<g>
				<path fill="#294885" d="M140.6,317.3c-5.1,0-6,2-6,3.3c0,5.9,14.9,4.2,14.9,15.4c0,7.4-6.4,11-14.7,11c-7.2,0-9.1-3.6-9.1-6.7
					c0-0.6,0-1.1,0.2-1.7c0.2-0.5,0.5-0.8,1.2-0.4c2.6,1.3,5,1.8,7.4,1.8c3.8,0,6.7-1.1,6.7-3.7c0-5.9-14.9-4.7-14.9-15.6
					c0-6.9,4.9-10.3,14.7-10.3c1.6,0,4.2,0.2,6,0.7c0.5,0.1,0.7,0.5,0.6,0.9l-0.8,5.4c-0.1,0.6-0.4,0.7-1,0.6
					C144.1,317.4,142.1,317.3,140.6,317.3z"/>
				<path fill="#294885" d="M163.6,310.5c2.4,0,4.2,1.8,4.2,4.2v12.2l11.2-15.1c0.5-0.7,1.2-1,2.1-1h6.3c0.9,0,1.4,0.7,0.8,1.4
					l-11.5,15.1c-0.2,0.2-0.2,0.4,0,0.6c4.6,5.9,10.7,14.6,13.1,16.8c0.5,0.4,0.3,0.8,0,1c-0.8,0.6-2.2,1.4-4.1,1.4
					c-3.8,0-5.9-1.6-8-4.6l-9.9-14.1v17.2c0,0.4-0.4,0.8-0.8,0.8h-6.5c-0.4,0-0.8-0.4-0.8-0.8v-28.2c-2.7-0.4-3.9-2.1-4.2-5.9
					c-0.1-0.6,0.4-0.9,1-0.9C159,310.8,161.1,310.5,163.6,310.5z"/>
				<path fill="#294885" d="M213.1,310.5c5.1,0,6.3,1.7,7.4,4.7l9.2,25.7c1,2.6,1.7,3.8,2.2,4.5c0.2,0.2,0.2,0.5-0.1,0.7
					c-0.7,0.5-1.9,1.1-4,1.1c-3.5,0-5.6-1.3-6.6-4.3l-1.1-3.4c-0.2-0.5-0.4-0.7-0.9-0.7h-13.4c-0.5,0-0.7,0.2-0.8,0.7l-2.1,6.2
					c-0.2,0.4-0.4,0.7-1,0.7H195c-0.6,0-1-0.6-0.8-1.2l9.8-27.8c-2.7-0.4-3.9-2.1-4.2-5.9c-0.1-0.6,0.4-0.9,1-0.9
					C205,310.8,208.8,310.5,213.1,310.5z M217.8,331.2l-4-12.8c-0.3-0.8-0.6-1.2-1.3-1.2h-0.7l-4.5,14c-0.1,0.4,0.1,0.6,0.5,0.6h9.6
					C217.8,331.8,217.9,331.6,217.8,331.2z"/>
				<path fill="#294885" d="M234.2,311.6c-0.1-0.6,0.4-0.9,1-0.9c2.7-0.1,5-0.3,7-0.3c2.5,0,4.2,1.4,4.2,4.2v17.8
					c0,4.8,2.4,7.3,6.8,7.3c4.3,0,6.8-2.5,6.8-7.3v-21c0-0.4,0.4-0.8,0.8-0.8h6.5c0.4,0,0.8,0.4,0.8,0.8v22.7
					c0,8.1-5.4,12.6-14.8,12.6c-9.7,0-14.8-4.1-14.8-12.6v-16.8C235.7,317.1,234.5,315.4,234.2,311.6z"/>
				<path fill="#294885" d="M292.6,318.4v16.9c0,3.8,0.8,4.7,3,5c0.6,0.1,1.5,0.1,2.1,0.1c0.8-0.1,1,0.4,0.9,1.3
					c-0.4,2.5-2.8,5.4-7,5.4c-4.9,0-6.9-2.6-6.9-9.3v-19.3c0-0.3-0.2-0.5-0.5-0.5h-8.1c-0.4,0-0.8-0.4-0.8-0.8v-5.5
					c0-0.4,0.4-0.8,0.8-0.8h25.3c0.4,0,0.8,0.4,0.8,0.8v5.5c0,0.4-0.4,0.8-0.8,0.8h-8.1C292.8,317.9,292.6,318.1,292.6,318.4z"/>
			</g>
		</g>
	</g>
	<circle fill="none" cx="212.4" cy="206.9" r="198"/>
</g>
</svg>
