<?xml version="1.0" encoding="UTF-8" standalone="no"?>
<svg
   xmlns:dc="http://purl.org/dc/elements/1.1/"
   xmlns:cc="http://creativecommons.org/ns#"
   xmlns:rdf="http://www.w3.org/1999/02/22-rdf-syntax-ns#"
   xmlns:svg="http://www.w3.org/2000/svg"
   xmlns="http://www.w3.org/2000/svg"
   id="svg8"
   version="1.1"
   viewBox="0 0 167.39655 134.35008"
   height="134.35008mm"
   width="167.39655mm">
  <defs
     id="defs2" />
  <metadata
     id="metadata5">
    <rdf:RDF>
      <cc:Work
         rdf:about="">
        <dc:format>image/svg+xml</dc:format>
        <dc:type
           rdf:resource="http://purl.org/dc/dcmitype/StillImage" />
        <dc:title></dc:title>
      </cc:Work>
    </rdf:RDF>
  </metadata>
  <g
     transform="translate(260.21316,35.892304)"
     id="layer1">
    <path
       style="fill:#ffffff;fill-opacity:1;stroke-width:0.21030626"
       d="m -97.689459,14.604899 c 2.006548,5.095997 4.872851,12.971684 4.872851,23.858658 0,19.225842 -8.312552,24.321843 -12.612002,31.965939 -7.16597,10.655377 -18.63163,14.824816 -24.36423,18.067698 -15.19194,6.25434 -34.6831,9.960587 -52.16817,9.960587 -7.73915,0 -12.89882,-0.69497 -14.90513,-0.92657 -5.15966,-0.694953 -15.47829,-3.93783 -28.66369,-7.875678 -10.60567,-3.011277 -16.91167,-10.655379 -20.63795,-15.288192 -10.60568,-12.97169 -14.04538,-26.175163 -14.04538,-31.502756 0,-11.581937 2.29336,-19.920812 5.73283,-30.344598 6.306,-18.762661 11.75225,-21.0789679 20.35114,-28.723066 5.15966,-4.864407 10.8925,-11.350347 25.79739,-14.824808 6.59281,-1.62154 19.77821,-4.864417 31.8168,-4.864417 19.77797,0 46.14875,13.898258 61.34046,27.1017251 8.59913,7.4125076 15.478531,18.5310706 17.485081,23.3954779 z"
       id="path3713" />
  </g>
</svg>
