<?xml version="1.0" encoding="utf-8"?>
<!-- Generator: Adobe Illustrator 22.0.1, SVG Export Plug-In . SVG Version: 6.00 Build 0)  -->
<svg version="1.1" id="Vrstva_1" xmlns="http://www.w3.org/2000/svg" xmlns:xlink="http://www.w3.org/1999/xlink" x="0px" y="0px"
	 viewBox="0 0 1000 1000" enable-background="new 0 0 1000 1000" xml:space="preserve">
<path fill="#BDD4DF" d="M163.06,588.217c-8.577-26.955-20.829-68.613-20.829-126.199c0-101.694,35.532-128.649,53.91-169.082
	c30.631-56.361,79.641-78.415,104.145-95.568c64.938-33.082,148.253-52.686,222.993-52.686c33.081,0,55.136,3.676,63.712,4.901
	c22.055,3.676,66.162,20.829,122.523,41.658c45.334,15.928,72.289,56.361,88.217,80.866
	c45.334,68.613,60.037,138.452,60.037,166.632c0,61.262-9.803,105.37-24.505,160.506c-26.955,99.244-50.235,111.496-86.991,151.929
	c-22.055,25.73-46.56,60.037-110.271,78.415c-28.181,8.577-84.542,25.73-136.001,25.73c-84.541,0-197.263-73.514-262.2-143.353
	C201.043,672.758,171.637,613.947,163.06,588.217z"/>
</svg>
