<?xml version="1.0" encoding="utf-8"?>
<!-- Generator: Adobe Illustrator 22.0.1, SVG Export Plug-In . SVG Version: 6.00 Build 0)  -->
<svg version="1.1" id="Vrstva_1" xmlns="http://www.w3.org/2000/svg" xmlns:xlink="http://www.w3.org/1999/xlink" x="0px" y="0px"
	 viewBox="0 0 1000 1000" enable-background="new 0 0 1000 1000" xml:space="preserve">
<path fill="#BDD4DF" d="M738.727,809.942c-9.805,9.629-20.108,18.527-30.847,26.678c-6.381,4.846-15.284,3.829-20.482-2.336
	c-8.56-10.137-21.353-25.153-29.384-34.575c-4.187-4.91-4.093-12.298,0.233-17.097c20.124-22.292,33.166-38.817,39.345-54.484
	c0.887-2.256,2.942-3.797,5.307-3.972c2.366-0.159,4.607,1.065,5.805,3.178c14.708,26.169,26.318,46.841,33.26,59.171
	C746.276,794.148,744.937,803.856,738.727,809.942 M633.392,755.871c-1.899,1.78-4.389,2.685-6.941,2.542s-4.949-1.335-6.646-3.305
	l-20.326-23.723c-2.303-2.685-3.408-6.213-3.051-9.772c0.358-3.543,2.148-6.769,4.918-8.914
	c28.902-22.229,46.738-45.205,53.586-65.32c0.607-1.748,2.148-2.987,3.938-3.162c1.805-0.175,3.549,0.747,4.451,2.352
	c5.058,9.025,9.992,17.812,14.786,26.344c2.568,4.576,3.3,9.994,2.023,15.111C674.745,709.538,657.08,733.753,633.392,755.871
	 M558.997,690.9c-85.741-15.81-139.062-60.442-175.403-103.947c-4.062-4.878-4.7-11.853-1.572-17.43
	c39.065-69.658,79.002-140.889,106.954-190.813c2.506-4.449,7.113-7.198,12.109-7.198c5.012,0,9.603,2.765,12.093,7.23
	c37.368,66.846,103.374,184.505,121.646,217.094c3.206,5.704,3.751,12.616,1.479,18.781c-11.782,31.826-33.446,54.897-64.527,73.901
	C567.931,690.868,563.402,691.71,558.997,690.9 M549.55,740.474l-10.941,32.668c-1.992,5.943-7.86,9.486-13.883,8.389
	c-81.009-14.809-141.147-49.415-189.208-107.919c-4.233-5.164-4.871-12.505-1.588-18.352c5.432-9.692,14.023-24.994,21.042-37.514
	c1.105-1.954,3.082-3.194,5.261-3.305s4.264,0.922,5.541,2.733c29.073,41.518,98.114,90.854,174.485,106.617
	c3.502,0.715,6.537,2.971,8.311,6.165C550.36,733.149,550.718,736.979,549.55,740.474 M517.442,836.413
	c-5.229,15.651-13.681,40.915-18.676,55.898c-2.475,7.388-9.401,12.187-16.996,11.774c-76.698-4.274-151.964-33.351-210.204-86.818
	c-10.957-10.058-13.572-26.678-6.225-39.771c8.934-15.921,22.318-39.787,38.396-68.435c1.121-1.97,3.082-3.273,5.292-3.48
	c2.21-0.207,4.373,0.699,5.821,2.431c32.279,38.96,91.172,89.059,193.457,111.765c3.471,0.763,6.443,3.019,8.187,6.197
	C518.236,829.152,518.594,832.965,517.442,836.413 M773.327,776.221c-62.933-97.162-70.262-124.739-242.906-426.68
	c-9.955-17.413-10.035-38.82-0.161-56.265c19.233-33.971,85.533-158.743,85.533-158.743s4.784-8.988-0.725-15.802
	c0,0,5.509,6.814,0,0c0,0-5.493-6.83-10.647,1.949l-85.017,145.067c0,0-5.138,8.779-5.364-1.401l-4.333-195.259
	c0,0-0.225-10.18-8.36-10.164c0,0,8.134-0.016,0,0c0,0-8.118,0.016-8.312,10.196l-3.512,195.163c0,0-0.177,10.18-5.444,1.466
	L397.692,123.08c0,0-5.283-8.714-10.953-3.334c0,0,5.67-5.38,0,0c0,0-5.686,5.38-0.773,14.304l85.484,155.312
	c11.018,18.75,11.179,42.009,0.403,60.904c-60.888,106.586-206.825,362.684-248.238,435.347
	c-6.781,11.904-5.348,26.948,3.882,37.064c141.217,154.909,395.319,157.792,540.805,8.827
	C782.734,816.716,784.57,793.601,773.327,776.221"/>
</svg>
