<?xml version="1.0" encoding="utf-8"?>
<!-- Generator: Adobe Illustrator 22.0.1, SVG Export Plug-In . SVG Version: 6.00 Build 0)  -->
<svg version="1.1" id="Vrstva_1" xmlns="http://www.w3.org/2000/svg" xmlns:xlink="http://www.w3.org/1999/xlink" x="0px" y="0px"
	 viewBox="0 0 1000 1000" enable-background="new 0 0 1000 1000" xml:space="preserve">
<g>
	<path fill="#BDD4DF" d="M838.166,491.311c5.977,5.759,11.647,11.516,16.863,17.108c1.014,1.098,2.427,1.741,3.921,1.784
		c1.268,0.042,2.512-0.359,3.517-1.135c2.912-2.279,5.685-4.731,8.304-7.342l-0.056-0.132l2.005-1.898
		c16.763-25.946,24.42-56.731,21.766-87.507c-0.604-6.824-1.706-13.594-3.295-20.257c-0.729-3.161-3.882-5.134-7.043-4.405
		c-0.219,0.051-0.436,0.114-0.649,0.189c-1.864,0.736-3.165,2.448-3.374,4.442c-4.453,30.491-19.558,63.155-42.528,91.964
		C835.89,486.303,836.138,489.426,838.166,491.311z"/>
	<path fill="#BDD4DF" d="M789.246,449.155c0.243,0.278,0.516,0.528,0.813,0.746c6.764,5.239,17.29,13.635,28.99,23.879
		c1.04,0.912,2.365,1.435,3.747,1.479c1.362,0.048,2.698-0.385,3.772-1.223c0.275-0.227,0.522-0.487,0.736-0.772
		c40.285-51.446,50.35-108.11,26.93-151.585c-0.286-0.536-0.65-1.027-1.078-1.458c-0.336-0.336-0.758-0.572-1.22-0.684
		c-0.228-0.048-0.459-0.077-0.691-0.085c-0.769-0.045-1.523,0.226-2.088,0.75c-0.528,0.498-0.828,1.19-0.831,1.915
		c-0.614,30.944-20.571,71.275-59.317,119.902C787.388,444.154,787.487,447.132,789.246,449.155z"/>
	<path fill="#BDD4DF" d="M763.005,313.605c0.338,25.941-14.105,51.691-42.929,76.532c-2.146,1.898-2.502,5.114-0.824,7.436
		c0.419,0.603,0.949,1.122,1.56,1.529c17.429,12.356,35.818,25.87,48.159,35.031c0.965,0.722,2.128,1.132,3.332,1.177
		c1.728,0.079,3.39-0.668,4.478-2.012c48.06-60.027,65.8-104.687,52.709-132.731c-9.094-19.514-34.307-31.946-74.939-36.921
		c-0.198-0.027-0.379-0.036-0.559-0.046c-2.905-0.181-5.426,1.983-5.689,4.882c-0.084,1.422,0.324,2.83,1.154,3.988
		C757.88,284.571,762.589,298.867,763.005,313.605z"/>
	<path fill="#BDD4DF" d="M551.058,408.793c0.2-0.121,0.392-0.254,0.575-0.398c0.346-0.274,0.715-0.518,1.104-0.727l0.376-0.175
		c0.258-0.111,0.508-0.239,0.748-0.384c41.067-24.629,81.582-38.839,108.368-37.989c7.858-0.011,15.594,1.951,22.499,5.704
		c3.35,1.97,7.788,4.801,13.186,8.411c2.145,1.437,4.962,1.371,7.037-0.165c4.235-3.422,8.223-6.905,11.846-10.347
		c2.134-2.014,2.231-5.377,0.216-7.511c-0.044-0.047-0.09-0.093-0.136-0.139c-15.812-16.857-38.46-25.855-67.311-26.77
		c-42.546-1.336-95.696,15.218-145.817,45.415c-32.582,19.633-61.673,44.405-79.809,67.96
		c-14.364,18.659-29.142,45.932-17.99,69.918c1.102,2.198,3.285,3.649,5.739,3.814c17.072,0.969,34.168-1.41,50.328-7.003
		c2.727-0.784,4.371-3.558,3.749-6.327c-3.748-16.224,5.028-35.511,26.065-57.387C509.62,437.027,529.51,421.61,551.058,408.793z"/>
	<path fill="#BDD4DF" d="M415.381,540.689c-6.493-0.195-12.963-0.863-19.358-2c-25.314-4.525-57.069-16.523-87.127-32.92
		c-0.541-0.306-1.106-0.567-1.69-0.78c-1.215-0.361-2.333-0.992-3.271-1.845c-0.465-0.367-0.959-0.697-1.477-0.986
		c-28.334-16.23-48.998-33.298-56.693-46.832c-1.761-2.963-2.963-6.224-3.549-9.621c-0.489-2.295-2.1-4.189-4.287-5.039
		c-12.478-5.35-23.929-5.717-33.939-1.073c-16.083,7.46-29.434,27.131-38.612,56.886c-0.076,0.237-0.134,0.48-0.172,0.726
		c-1.333,10.055,11.361,36.313,51.81,67.489c28.052,21.628,106.039,72.36,224.103,76.449l1.359,0.042
		c55.556,1.32,110.927-6.896,163.707-24.291c2.865-0.855,4.585-3.778,3.941-6.698c-0.332-1.255-1.074-2.363-2.109-3.149
		c-38.791-31.271-81.522-57.31-127.096-77.452c-1.676-0.75-3.586-0.78-5.285-0.085C456.562,537.435,436.029,541.245,415.381,540.689
		z"/>
	<path fill="#BDD4DF" d="M638.898,269.466c-6.34-0.694-12.926-1.15-19.576-1.36c-42.739-1.344-89.801,7.078-136.104,24.351
		c-54.47,20.326-101.398,50.686-132.098,85.47c-31.87,36.133-44.15,74.774-35.522,111.715c0.447,1.817,1.654,3.354,3.313,4.22
		c18.934,10.355,38.875,18.75,59.514,25.055c0.605,0.177,1.23,0.278,1.86,0.297c2.66,0.148,5.141-1.343,6.258-3.762
		c0.374-0.961,0.465-2.008,0.264-3.019c-7.533-48.295,48.991-105.923,108.352-141.611c44.481-26.743,91.786-43.392,133.195-46.87
		c7.021-0.603,14.071-0.804,21.115-0.6c31.821,0.999,57.398,10.897,76.017,29.417c2.076,2.057,5.286,2.433,7.781,0.912
		c0.55-0.372,1.02-0.849,1.386-1.403c5.099-7.139,8.939-15.097,11.356-23.53c0.403-1.615,0.061-3.325-0.932-4.661
		C723.395,293.587,686.683,274.691,638.898,269.466z"/>
	<path fill="#BDD4DF" d="M259.98,446.764c0.213,1.339,0.693,2.621,1.413,3.769c5.529,8.705,13.03,14.425,24.325,22.67
		c1.247,0.907,2.74,1.415,4.282,1.456c2.052,0.087,4.038-0.728,5.438-2.231c0.921-1.087,1.39-2.486,1.308-3.909
		c-0.779-34.429,13.32-68.293,41.908-100.664c32.356-36.635,81.499-68.454,138.382-89.602
		c45.245-17.386,93.404-25.934,141.868-25.181c7.166,0.225,14.27,0.724,21.111,1.478c49.929,5.527,64.954,14.926,87.222,31.065
		c1.04,0.761,2.285,1.191,3.574,1.234c2.163,0.088,4.186-1.073,5.201-2.986c0.923-1.993,0.644-4.337-0.724-6.056
		c-4.66-6.428-10.079-12.271-16.139-17.401l-2.012-1.704l-1.216-1.035c-27.472-26.075-68.26-41.106-118.144-43.35
		c-1.284-0.057-2.57-0.107-3.86-0.147c-46.607-1.463-99.969,8.247-150.253,27.342c-52.755,20.032-99.92,49.422-132.823,82.754
		C253.415,382.453,258.031,435.001,259.98,446.764z"/>
	<path fill="#BDD4DF" d="M227.13,289.121c7.042-0.325,14.421-0.37,21.926-0.135c21.398,0.8,42.69,3.412,63.648,7.808
		c2.006,0.453,4.109-0.03,5.716-1.314c17.757-14.824,36.844-27.977,57.02-39.29c1.822-0.942,2.981-2.808,3.02-4.859
		c-0.286-3.757-3.372-6.686-7.139-6.776l-0.489,0.001c-62.266,1.287-113.823,12.643-148.986,32.837
		c-1.464,0.814-2.493,2.235-2.808,3.881c-0.293,1.862,0.276,3.757,1.546,5.149C222.248,288.262,224.653,289.253,227.13,289.121z"/>
	<path fill="#BDD4DF" d="M141.02,382.712c0.887,0.208,1.805,0.257,2.709,0.144c11.133-1.071,22.325-1.414,33.502-1.027
		c22.122,0.796,44.113,3.744,65.662,8.803c0.501,0.119,1.013,0.189,1.527,0.208c2.671,0.228,5.182-1.301,6.205-3.78
		c8.898-25.457,25.109-50.206,48.187-73.554c0.407-0.396,0.62-0.951,0.583-1.518c-0.078-0.789-0.483-1.509-1.116-1.986
		c-0.453-0.326-0.979-0.534-1.532-0.605c-15.413-2.657-30.988-4.267-46.619-4.817c-41.839-1.313-64.145,6.712-68.579,8.507
		l-0.375,0.186c-22.336,13.534-43.4,26.353-46.042,62.391C135.156,379.119,137.624,382.074,141.02,382.712z"/>
	<path fill="#BDD4DF" d="M196.329,425.716c6.999-3.573,14.759-5.395,22.617-5.31c5.38,0.285,10.704,1.249,15.843,2.868
		c0.633,0.18,1.287,0.282,1.944,0.303c2.537,0.148,4.944-1.136,6.233-3.326c0.314-0.613,0.501-1.284,0.55-1.971
		c0.201-1.904,0.454-3.859,0.751-5.814c0.265-3.417-2.124-6.47-5.503-7.036c-20.006-4.607-40.405-7.296-60.921-8.029
		c-14.59-0.61-29.205,0.249-43.624,2.564c-1.347,0.218-2.593,0.851-3.564,1.81l-1.143,1.142
		c-13.177,12.01-21.499,28.43-23.394,46.158c-3.254,29.761,4.565,50.962,21.14,81.995c1.353,2.375,3.868,3.851,6.602,3.874
		c1.435,0.042,2.856-0.292,4.123-0.968c1.6-0.875,2.692-2.457,2.943-4.264c1.856-12.245,4.549-24.348,8.061-36.224
		c0.054-0.142,0.085-0.273,0.175-0.607l0.238-0.738C159.858,458.088,176.095,435.079,196.329,425.716z"/>
	<path fill="#BDD4DF" d="M436.985,738.161l3.159,0.084c73.454,1.657,149.801-20.025,226.831-64.434
		c2.426-1.327,3.5-4.243,2.512-6.826c-0.246-0.615-0.605-1.178-1.059-1.659c-10.197-11.534-20.396-22.137-31.168-32.409
		c-3.406-3.215-7.879-5.06-12.561-5.181c-2.311-0.076-4.618,0.262-6.81,0.997c-56.508,19.408-116.021,28.598-175.752,27.139
		l-0.847-0.03c-21.02-0.698-41.966-2.866-62.683-6.488c-86.839-15.198-144.947-52.184-171.851-72.876
		c-13.936-10.52-26.675-22.538-37.989-35.838c-1.178-1.477-2.861-2.464-4.725-2.771c-0.348-0.052-0.699-0.084-1.051-0.096
		c-3.398-0.343-6.493,1.969-7.13,5.324c-1.262,10.623-2.001,21.424-2.195,32.12c-0.19,10.477,7.483,43.078,17.728,50.495
		c4.227,3.059,8.914,6.551,13.447,9.927C231.204,670.159,317.508,734.423,436.985,738.161z"/>
	<path fill="#BDD4DF" d="M231.137,686.883c-22.521-14.117-41.141-27.948-56.444-39.315c-0.347-0.247-0.759-0.385-1.184-0.398
		c-0.62-0.036-1.219,0.23-1.607,0.714c-0.108,0.173-0.159,0.376-0.147,0.58c0.296,22.116,9.527,43.172,25.593,58.375
		c6.278,6.642,14.359,11.307,23.251,13.421c0.354,0.061,0.713,0.097,1.072,0.109c2.756,0.183,5.342-1.348,6.505-3.853l7.023-17.098
		C237.087,694.807,235.37,689.509,231.137,686.883z"/>
	<path fill="#BDD4DF" d="M361.852,743.437c-35.655-8.681-69.997-22.068-102.122-39.807c-1.049-0.565-2.215-0.877-3.406-0.913
		c-2.056-0.076-4.052,0.705-5.511,2.156c-0.496,0.524-0.882,1.14-1.139,1.814l-4.9,11.937c-2.494,6.013-1.056,12.939,3.628,17.461
		c13.799,13.191,39.662,24.363,64.475,27.235c3.069,0.353,6.164,0.584,9.208,0.678c11.59,0.361,28.294-1.07,42.119-9.971
		c1.376-0.859,2.341-2.246,2.667-3.836c0.264-1.54-0.123-3.121-1.07-4.365C364.808,744.589,363.409,743.742,361.852,743.437z"/>
	<path fill="#BDD4DF" d="M717.642,727.764c-9.246-12.62-19.67-26.845-31.871-41.931c-1.884-2.263-5.126-2.838-7.673-1.36
		c-80.925,47.427-161.169,70.642-238.553,69.009c-8.717-0.19-17.433-0.679-26.032-1.482c-0.177-0.018-0.31-0.025-0.445-0.028
		c-1.842-0.07-3.635,0.596-4.984,1.852c-1.129,1.062-1.78,2.536-1.803,4.086c0.08,2.134,1.318,4.053,3.228,5.007
		c1.119,0.627,2.28,1.248,3.485,1.862c23.983,12.179,60.744,19.628,103.502,20.973c7.877,0.248,15.959,0.286,24.031,0.115
		c63.036-2.148,125.349-14.143,184.678-35.55c2.635-0.838,4.263-3.475,3.832-6.206c-0.155-0.861-0.522-1.67-1.066-2.355
		C724.655,737.334,721.194,732.631,717.642,727.764z"/>
	<path fill="#BDD4DF" d="M705.735,532.533c-62.91-55.567-122.246-99.203-143.276-109.286c-0.848-0.406-1.771-0.633-2.71-0.665
		c-1.183-0.048-2.353,0.257-3.362,0.877c-19.262,11.691-37.044,25.662-52.961,41.61c-8.548,8.897-27.749,31.252-21.481,46.676
		c0.704,1.559,1.968,2.796,3.541,3.467c83.016,37.112,147.304,84.676,202.329,149.694c0.282,0.361,0.614,0.68,0.986,0.948
		c0.998,0.641,1.828,1.512,2.419,2.541l0.233,0.433c0.237,0.527,0.536,1.024,0.889,1.481c14.618,17.683,26.745,34.255,37.444,48.887
		c22.214,30.389,35.369,47.573,47.894,47.965c3.176,0.021,6.298-0.817,9.036-2.425c16.974-9.191,38.241-32.186,57.669-62.169
		c2.36-3.612,2.806-8.149,1.195-12.151C831.493,656.054,781.306,599.282,705.735,532.533z"/>
	<path fill="#BDD4DF" d="M875.814,559.193c-0.275-0.379-0.514-0.784-0.712-1.209c-0.082-0.176-0.172-0.348-0.271-0.515
		c-6.721-10.926-14.401-21.231-22.949-30.795l-1.067-1.213c-24.426-26.5-51.331-50.604-80.347-71.982
		c-0.755-0.567-70.061-52.326-93.285-65.949c-4.544-2.346-9.595-3.538-14.708-3.472c-15.834-0.497-38.644,5.537-64.228,16.993
		c-7.733,3.461-9.353,4.296-12.582,5.948l-2.098,1.058c-2.737,1.355-3.858,4.672-2.503,7.41c0.035,0.07,0.071,0.14,0.109,0.21
		c0.571,1.05,1.422,1.922,2.456,2.52c33.341,20.82,91.718,66.981,141.958,112.217c36.326,32.713,101.113,94.522,126.941,140.925
		c0.584,1.127,1.539,2.019,2.703,2.525c2.738,1.115,5.878,0.007,7.309-2.58c16.542-32.067,23.938-54.653,24.737-75.537
		c0.395-10.36-3.354-22.511-11.141-36.109C876.036,559.485,875.929,559.336,875.814,559.193z"/>
</g>
</svg>
