<?xml version="1.0" encoding="utf-8"?>
<!-- Generator: Adobe Illustrator 22.0.1, SVG Export Plug-In . SVG Version: 6.00 Build 0)  -->
<svg version="1.1" id="Vrstva_1" xmlns="http://www.w3.org/2000/svg" xmlns:xlink="http://www.w3.org/1999/xlink" x="0px" y="0px"
	 viewBox="0 0 1000 1000" enable-background="new 0 0 1000 1000" xml:space="preserve">
<path fill="#BDD4DF" d="M790.381,621.298c4.901-14.703,6.126-28.18,6.126-37.982c0-36.757-25.73-67.388-62.487-67.388
	c-67.388,0-123.749,58.812-123.749,129.875c0,50.235,41.658,74.739,88.217,74.739h15.928c11.027,0,13.478,9.802,13.478,19.604
	c0,31.856-19.604,73.514-77.19,73.514c-67.388,0-80.866-60.037-93.118-60.037c-11.027,0-4.901,19.604,13.478,55.135
	c3.675,7.352,8.576,12.252,8.576,24.505c0,45.333-63.712,107.82-79.64,107.82c-15.928,0-79.64-62.487-79.64-107.82
	c0-12.252,4.901-17.153,8.577-24.505c18.378-35.532,24.504-55.135,13.478-55.135c-12.252,0-25.73,60.037-93.118,60.037
	c-57.586,0-77.19-41.658-77.19-73.514c0-9.802,2.451-19.604,13.478-19.604h15.928c46.559,0,88.217-24.504,88.217-74.739
	c0-71.063-56.361-129.875-123.749-129.875c-36.757,0-62.487,30.631-62.487,67.388c0,9.802,1.225,23.279,6.126,37.982
	c4.9,15.928-7.352,22.055-24.505,13.478c-50.234-23.279-93.118-98.019-93.118-164.181c0-98.019,62.487-153.154,137.227-153.154
	c78.415,0,122.523,51.459,136.001,67.388c13.478,13.478,25.73,40.433,39.208,40.433c7.352,0,11.027-7.351,11.027-18.378
	c0-55.136-62.487-151.929-28.18-226.668C408.107,136.105,474.27,58.916,500,58.916s91.893,77.19,112.722,121.298
	c34.307,74.739-28.18,165.407-28.18,226.668c0,11.027,3.676,18.378,11.027,18.378c13.478,0,25.73-26.955,39.208-40.433
	c13.478-15.928,57.586-67.388,136.001-67.388c74.739,0,137.227,55.135,137.227,153.154c0,75.964-50.235,144.578-93.118,164.181
	C797.732,643.353,785.48,637.227,790.381,621.298z"/>
</svg>
