<?xml version="1.0" encoding="utf-8"?>
<!-- Generator: Adobe Illustrator 22.0.1, SVG Export Plug-In . SVG Version: 6.00 Build 0)  -->
<svg version="1.1" id="Vrstva_1" xmlns="http://www.w3.org/2000/svg" xmlns:xlink="http://www.w3.org/1999/xlink" x="0px" y="0px"
	 viewBox="0 0 1000 1000" enable-background="new 0 0 1000 1000" xml:space="preserve">
<g>
	<g>
		<path fill="#BDD4DF" d="M426.392,806.646c32.844,11.216,94.941,18.187,147.609,1.973l296.371-91.162
			c4.387-0.164,8.077,3.26,8.241,7.647c0.035,0.927-0.093,1.853-0.378,2.737c-7.788,22.973-25.671,54.594-66.417,68.962
			l-244.061,86.06c0,0-67.834,23.924-135.667,0L188.024,796.83c0,0-60.361-21.304-70.962-83.985
			c0.256-4.365,4.002-7.697,8.367-7.441c0.676,0.04,1.345,0.166,1.989,0.376L426.392,806.646z"/>
		<g>
			<g>
				<path fill="#BDD4DF" d="M108.343,493.768c0.786-4.193,4.822-6.955,9.016-6.169c0.357,0.067,0.709,0.159,1.053,0.275
					l91.363,30.824c3.376,1.135,5.65,4.301,5.646,7.863v43.969c0.01,4.576-3.69,8.293-8.266,8.304
					c-0.913,0.002-1.821-0.147-2.686-0.441l-93.004-31.376c-2.945-0.991-5.008-3.651-5.235-6.75
					C104.743,524.744,105.455,509.09,108.343,493.768z"/>
				<path fill="#BDD4DF" d="M109.005,562.355c1.941-2.905,5.589-4.148,8.9-3.034l91.864,30.993c3.376,1.135,5.65,4.301,5.646,7.863
					v43.981c0.01,4.576-3.69,8.293-8.266,8.304c-0.913,0.002-1.821-0.147-2.686-0.441l-88.605-29.893
					c-2.971-1.003-5.04-3.704-5.235-6.833l-2.868-45.8C107.595,565.691,108.034,563.884,109.005,562.355z"/>
				<path fill="#BDD4DF" d="M113.385,635.448c1.941-2.905,5.589-4.148,8.9-3.034l87.504,29.522c3.376,1.135,5.65,4.301,5.646,7.863
					v43.969c0.01,4.576-3.69,8.293-8.266,8.304c-0.913,0.002-1.821-0.147-2.686-0.441l-84.246-28.405
					c-2.972-1.002-5.043-3.703-5.239-6.833l-2.864-45.788C111.97,638.794,112.41,636.982,113.385,635.448z"/>
			</g>
			<g>
				<path fill="#BDD4DF" d="M426.396,591.782c27.029,9.228,90.495,19.564,147.609,1.973l309.773-95.272
					c4.083-1.252,8.408,1.042,9.66,5.125c0.139,0.453,0.236,0.918,0.29,1.388c1.578,14.08,0.564,24.942-0.88,47.007
					c-0.209,3.206-2.372,5.952-5.44,6.904l-315.276,96.989c-70.619,21.722-141.664-1.274-143.648-1.925l-80.892-27.305
					c-3.376-1.135-5.65-4.301-5.646-7.863v-43.953c-0.01-4.576,3.69-8.293,8.266-8.304c0.913-0.002,1.821,0.147,2.686,0.441
					L426.396,591.782z"/>
				<path fill="#BDD4DF" d="M426.396,663.399c32.844,11.216,94.941,18.187,147.609,1.973l307.402-94.543
					c4.075-1.255,8.396,1.032,9.651,5.107c0.274,0.891,0.385,1.825,0.327,2.756l-2.896,46.273c-0.201,3.206-2.366,5.952-5.437,6.896
					l-310.921,95.655c-71.25,21.916-142.966-1.696-143.688-1.937l-80.853-27.257c-3.376-1.135-5.65-4.301-5.646-7.863v-43.993
					c-0.01-4.576,3.69-8.293,8.266-8.304c0.913-0.002,1.821,0.147,2.686,0.441L426.396,663.399z"/>
				<path fill="#BDD4DF" d="M426.396,735.028c22.531,7.693,87.335,20.515,147.609,1.973l303.046-93.217
					c4.078-1.252,8.4,1.039,9.652,5.117c0.272,0.887,0.383,1.816,0.326,2.742c-1.945,31.167-2.576,41.819-2.935,46.423
					c-0.252,3.153-2.404,5.832-5.429,6.758l-306.542,94.29c-71.25,21.923-142.966-1.696-143.688-1.937L347.583,769.9
					c-3.376-1.135-5.65-4.301-5.646-7.863v-43.941c-0.01-4.576,3.69-8.293,8.266-8.304c0.913-0.002,1.821,0.147,2.686,0.441
					L426.396,735.028z"/>
			</g>
			<g>
				<path fill="#BDD4DF" d="M221.804,531.2c0-4.175,4.095-7.119,8.052-5.789l96.208,32.329c5.679,1.908,9.504,7.23,9.504,13.22
					v42.931c0,4.177-4.1,7.122-8.058,5.787l-96.216-32.447c-5.671-1.913-9.49-7.23-9.49-13.215V531.2z"/>
				<path fill="#BDD4DF" d="M229.863,596.89l96.216,32.447c5.671,1.913,9.49,7.23,9.49,13.215v42.993
					c0,4.178-4.101,7.122-8.059,5.786l-96.217-32.462c-5.67-1.913-9.488-7.23-9.488-13.215v-42.978
					C221.804,598.5,225.904,595.555,229.863,596.89z"/>
				<path fill="#BDD4DF" d="M229.863,668.503l96.216,32.454c5.671,1.913,9.489,7.23,9.489,13.215v42.951
					c0,4.177-4.1,7.121-8.058,5.787l-96.215-32.439c-5.672-1.912-9.491-7.23-9.491-13.216V674.29
					C221.804,670.112,225.905,667.168,229.863,668.503z"/>
			</g>
		</g>
	</g>
	<path fill="#BDD4DF" d="M888.694,472.974c-14.771-57.087-45.768-72.065-336.308-344.576c-32.34-30.332-73.048-28.014-105.072-0.051
		C190.312,369.395,138.258,414.861,119.565,453.631c-5.805,12.039,0.313,25.523,13.004,29.712l68.556,22.628l62.687,20.69
		c7.004,2.312,14.631-0.973,17.764-7.651l151.599-323.154c0.592-1.271,11.7-24.399,14.934-25.049
		c4.676-0.94-8.438,25.907-9.024,27.187L291.424,522.182c-2.873,6.308,0.366,13.713,6.948,15.885l130.006,42.909
		c16.946,5.679,50.865,11.143,69.888,11.143c48.3,0,48.3,1.166,382.471-104.982C886.724,485.235,890.246,479.062,888.694,472.974z"
		/>
</g>
</svg>
