<?xml version="1.0" encoding="utf-8"?>
<!-- Generator: Adobe Illustrator 22.0.1, SVG Export Plug-In . SVG Version: 6.00 Build 0)  -->
<svg version="1.1" id="Vrstva_1" xmlns="http://www.w3.org/2000/svg" xmlns:xlink="http://www.w3.org/1999/xlink" x="0px" y="0px"
	 viewBox="0 0 1000 1000" enable-background="new 0 0 1000 1000" xml:space="preserve">
<path fill="#BDD4DF" d="M261.514,586.991c-2.451-84.541-3.676-133.55,53.91-133.55c41.658,0,37.982,14.703,37.982,77.19
	c0,61.262,1.225,101.694-50.234,101.694C268.866,629.875,262.739,599.244,261.514,586.991z M267.64,670.308
	c0-9.802,6.126-17.153,18.379-18.379c148.253-7.351,150.704,95.568,154.379,133.551c0,7.352,3.676,11.027,7.352,11.027
	s8.577-4.901,9.802-12.252c9.802-50.235,82.091-95.568,121.298-111.497c8.577-3.676,13.478-6.126,13.478-12.252
	c0-6.126-4.901-8.577-14.703-12.252c-62.487-20.829-94.343-44.109-94.343-117.623c0-31.856,2.451-42.883,18.378-42.883
	c45.334,0,204.614,55.135,219.317,98.019c2.45,8.577,6.126,30.631,6.126,61.262c0,161.731-72.289,281.804-232.795,281.804
	C348.506,928.832,257.838,819.786,267.64,670.308z M369.335,458.342c1.225-39.208,9.802-57.586,51.46-57.586
	c40.433,0,41.658,19.604,41.658,68.613c0,69.838,4.901,133.55-47.784,133.55C358.307,602.92,369.335,533.081,369.335,458.342z
	 M561.697,470.594c12.252,3.676,22.054-1.225,20.829-14.703c-8.577-106.595-41.658-297.732-50.235-339.39
	c-7.352-36.757-15.928-45.333-41.658-45.333c-15.928,0-36.757,12.252-36.757,40.433c0,55.136,17.153,219.317,33.082,323.462
	c2.45,13.478,6.126,18.378,17.153,22.054L561.697,470.594z M690.346,519.604c8.576,2.451,14.703-2.45,15.928-8.577
	c7.352-40.433,33.082-330.813,33.082-372.471c0-28.181-12.252-36.757-28.181-36.757c-8.577,0-34.307,3.676-41.658,31.856
	c-13.478,50.235-45.334,236.471-58.812,332.039c-1.225,13.478,3.676,20.829,17.153,26.955
	C654.814,504.901,679.319,515.928,690.346,519.604z"/>
</svg>
