<?xml version="1.0" encoding="utf-8"?>
<!-- Generator: Adobe Illustrator 22.0.1, SVG Export Plug-In . SVG Version: 6.00 Build 0)  -->
<svg version="1.1" id="Vrstva_1" xmlns="http://www.w3.org/2000/svg" xmlns:xlink="http://www.w3.org/1999/xlink" x="0px" y="0px"
	 viewBox="0 0 1000 1000" enable-background="new 0 0 1000 1000" xml:space="preserve">
<path fill="#BDD4DF" d="M921.634,518.379L533.234,879.823c-7.352,7.351-18.378,6.126-25.729-1.226l-96.794-98.019
	c-7.352-8.577-8.576-19.604,1.226-28.18l198.488-171.533H88.475c-9.802,0-18.379-8.577-18.379-18.378V437.513
	c0-9.802,8.577-18.378,18.379-18.378h521.95L411.937,247.602c-8.577-7.352-8.577-20.829-1.226-28.181l96.794-98.019
	c7.352-7.352,18.378-8.577,25.729-1.226l388.399,361.444C932.661,492.649,932.661,507.351,921.634,518.379z"/>
</svg>
