<?xml version="1.0" encoding="utf-8"?>
<!-- Generator: Adobe Illustrator 22.0.1, SVG Export Plug-In . SVG Version: 6.00 Build 0)  -->
<svg version="1.1" id="Vrstva_1" xmlns="http://www.w3.org/2000/svg" xmlns:xlink="http://www.w3.org/1999/xlink" x="0px" y="0px"
	 viewBox="0 0 1000 1000" enable-background="new 0 0 1000 1000" xml:space="preserve">
<path fill="#BDD4DF" d="M274.557,634.776c0-77.189,8.577-118.848,61.262-118.848c45.334,0,96.793,28.181,115.172,66.163
	c2.451,7.352,3.676,15.928,3.676,24.505c0,22.054-7.351,42.883-22.054,42.883c-28.18,0-52.685-24.505-67.386-24.507
	c-4.901,0-8.577,2.45-8.577,6.126s3.676,6.126,8.576,9.805c53.91,36.757,68.613,100.469,78.415,144.578
	c1.225,4.901,3.676,8.577,8.577,8.577c2.45,0,6.126-2.451,7.352-9.802c12.252-50.235,52.685-86.992,102.919-111.497
	c7.352-3.676,12.252-7.352,12.252-11.027c0-3.676-2.45-6.126-14.703-11.027c-64.937-22.054-94.343-57.586-94.343-131.1
	c0-18.378,3.676-34.307,12.252-36.757c22.054-7.352,224.218,51.459,241.371,98.019c3.676,8.577,6.126,33.082,6.126,64.938
	c0,160.506-69.839,283.029-226.669,283.029C326.017,928.832,274.557,811.21,274.557,634.776z M386.053,152.033
	c3.675-24.505,23.279-33.082,40.433-33.082c12.252,0,23.279,3.676,23.279,23.28c-3.675,126.199-8.577,249.948-14.703,336.939
	c-1.226,18.378-20.829,24.504-37.982,24.504c-18.378,0-40.433-6.126-39.208-26.955C360.323,394.63,381.152,176.538,386.053,152.033z
	 M482.847,458.342c-12.252-2.451-13.478-12.252-13.478-18.378c2.45-100.469,2.45-258.525,6.126-327.138
	c0-24.505,13.478-40.433,39.208-41.658c20.829,0,35.532,12.252,36.757,40.433c4.901,69.838,19.604,267.102,20.829,351.643
	c0,7.352-4.901,12.252-13.478,11.027L482.847,458.342z M621.298,496.324c-7.351-2.451-12.252-8.577-13.478-15.928
	c-11.027-61.262-31.856-345.516-31.856-345.516c-2.45-29.406,13.478-33.082,28.181-33.082c20.829,0,37.982,17.153,41.658,39.208
	c4.901,40.433,39.208,245.047,53.91,366.345c0,8.577-7.351,13.478-15.928,11.027L621.298,496.324z"/>
</svg>
