<?xml version="1.0" encoding="utf-8"?>
<!-- Generator: Adobe Illustrator 22.0.1, SVG Export Plug-In . SVG Version: 6.00 Build 0)  -->
<svg version="1.1" id="Vrstva_1" xmlns="http://www.w3.org/2000/svg" xmlns:xlink="http://www.w3.org/1999/xlink" x="0px" y="0px"
	 viewBox="0 0 1000 1000" enable-background="new 0 0 1000 1000" xml:space="preserve">
<path fill="#BDD4DF" d="M894.526,561.262c0,51.459-29.406,131.1-68.613,186.235C737.696,868.796,547.784,941.084,500,941.084
	s-237.695-72.289-325.912-193.587c-39.208-55.135-68.613-134.776-68.613-186.235c0-15.928,3.676-40.433,17.153-40.433
	c14.703,0,34.307,13.478,44.108,19.604c90.667,60.037,121.298,83.316,121.298,106.595c0,24.505-28.18,23.28-28.18,39.208
	c0,19.604,34.307,61.262,123.749,61.262c28.181,0,46.559-20.829,47.784-50.234l7.352-238.921L322.341,443.64
	c-53.91-6.126-71.063-42.883-71.063-100.469c0-8.577,6.126-13.478,13.478-13.478h176.434l1.226-34.307
	c-42.883-19.604-72.289-62.487-72.289-111.497c0-67.388,58.812-124.974,129.875-124.974s129.875,57.586,129.875,124.974
	c0,49.009-29.406,91.893-72.289,111.497l1.226,34.307h176.434c7.352,0,13.478,4.901,13.478,13.478
	c0,60.036-18.378,94.343-71.063,100.469l-116.397,14.703l7.352,238.921c1.225,29.406,19.604,50.234,47.784,50.234
	c89.442,0,123.749-41.658,123.749-61.262c0-15.928-28.18-14.703-28.18-39.208c0-23.279,30.631-46.559,121.298-106.595
	c9.802-6.126,29.406-19.604,44.109-19.604C890.85,520.829,894.526,545.334,894.526,561.262z M457.116,183.89
	c0,24.505,19.604,44.108,42.883,44.108s42.883-19.604,42.883-44.108S523.279,139.781,500,139.781S457.116,159.385,457.116,183.89z"
	/>
</svg>
