<?xml version="1.0" encoding="utf-8"?>
<!-- Generator: Adobe Illustrator 22.0.1, SVG Export Plug-In . SVG Version: 6.00 Build 0)  -->
<svg version="1.1" id="Vrstva_1" xmlns="http://www.w3.org/2000/svg" xmlns:xlink="http://www.w3.org/1999/xlink" x="0px" y="0px"
	 viewBox="0 0 1000 1000" enable-background="new 0 0 1000 1000" xml:space="preserve">
<path fill="#BDD4DF" d="M879.823,533.234L518.379,921.634c-9.802,11.027-26.955,11.027-36.757,0L120.177,533.234
	c-7.352-8.577-6.127-18.378,1.225-25.73l98.019-96.793c8.577-7.352,20.829-7.352,28.181,1.225l159.28,183.786V88.474
	c0-9.802,8.577-18.378,18.379-18.378h149.479c9.802,0,18.379,8.577,18.379,18.378v507.248l159.28-183.786
	c7.352-8.577,20.829-8.577,28.181-1.225l98.019,96.793C885.949,514.856,887.175,524.658,879.823,533.234z"/>
</svg>
