<?xml version="1.0" encoding="utf-8"?>
<!-- Generator: Adobe Illustrator 22.0.1, SVG Export Plug-In . SVG Version: 6.00 Build 0)  -->
<svg version="1.1" id="Vrstva_1" xmlns="http://www.w3.org/2000/svg" xmlns:xlink="http://www.w3.org/1999/xlink" x="0px" y="0px"
	 viewBox="0 0 1000 1000" enable-background="new 0 0 1000 1000" xml:space="preserve">
<path fill="#BDD4DF" d="M267.64,586.991c-2.45-84.541-3.676-133.55,53.91-133.55c41.658,0,37.982,14.703,37.982,77.19
	c0,61.262,1.226,101.694-50.234,101.694C274.992,629.875,268.866,599.244,267.64,586.991z M273.767,670.308
	c0-9.802,6.126-17.153,18.378-18.379c148.253-7.351,150.704,95.568,154.38,133.551c0,7.352,3.675,11.027,7.351,11.027
	s8.577-4.901,9.802-12.252c9.802-50.235,82.09-95.568,121.298-111.497c8.577-3.676,13.478-6.126,13.478-12.252
	c0-6.126-4.901-8.577-14.703-12.252c-62.487-20.829-94.343-44.109-94.343-117.623c0-31.856,2.451-42.883,18.379-42.883
	c45.333,0,204.614,55.135,219.317,98.019c2.451,8.577,6.126,30.631,6.126,61.262c0,161.731-72.289,281.804-232.794,281.804
	C354.632,928.832,263.964,819.786,273.767,670.308z M375.461,458.342c1.225-39.208,9.802-57.586,51.46-57.586
	c40.433,0,41.658,19.604,41.658,68.613c0,69.838,4.901,133.55-47.784,133.55C364.434,602.92,375.461,533.081,375.461,458.342z
	 M504.111,455.891c-7.352-2.45-13.478-9.802-13.478-20.829c0-100.469,8.576-272.002,12.252-323.462
	c2.451-29.405,19.604-40.433,37.982-40.433c22.054,0,36.757,7.352,39.208,45.333c2.451,42.883,6.126,245.047,9.802,339.39
	c0,13.478-11.027,15.928-18.379,14.703L504.111,455.891z M633.986,490.198c-7.352-4.901-12.253-11.027-13.478-23.279
	c-3.676-91.893-12.253-292.831-15.929-330.813c-1.225-33.082,22.055-37.982,30.631-37.982c18.378,0,31.856,9.802,37.982,39.208
	c8.577,39.208,33.082,275.678,39.208,370.021v1.225c0,6.126-4.901,11.027-11.027,11.027
	C692.797,519.604,659.715,506.126,633.986,490.198z"/>
</svg>
