<?xml version="1.0" encoding="utf-8"?>
<!-- Generator: Adobe Illustrator 22.0.1, SVG Export Plug-In . SVG Version: 6.00 Build 0)  -->
<svg version="1.1" id="Vrstva_1" xmlns="http://www.w3.org/2000/svg" xmlns:xlink="http://www.w3.org/1999/xlink" x="0px" y="0px"
	 viewBox="0 0 1000 1000" enable-background="new 0 0 1000 1000" xml:space="preserve">
<path fill="#BDD4DF" d="M878.597,492.496l-98.018,96.793c-8.577,7.352-20.83,7.352-28.182-1.226L593.119,404.278v507.248
	c0,9.802-8.577,18.378-18.379,18.378H425.261c-9.803,0-18.379-8.576-18.379-18.378V404.278L247.601,588.063
	c-7.351,8.577-20.828,8.577-28.18,1.226l-98.02-96.793c-7.351-7.352-8.576-17.153-1.225-25.73L481.622,78.366
	c9.802-11.027,26.955-11.027,36.757,0l361.444,388.399C887.174,475.342,885.949,485.144,878.597,492.496z"/>
</svg>
