<?xml version="1.0" encoding="utf-8"?>
<!-- Generator: Adobe Illustrator 22.0.1, SVG Export Plug-In . SVG Version: 6.00 Build 0)  -->
<svg version="1.1" id="Vrstva_1" xmlns="http://www.w3.org/2000/svg" xmlns:xlink="http://www.w3.org/1999/xlink" x="0px" y="0px"
	 viewBox="0 0 1000 1000" enable-background="new 0 0 1000 1000" xml:space="preserve">
<g>
	<path fill="#BDD4DF" d="M499.852,144.363c-196.237,0-355.318,159.082-355.318,355.318S303.615,855,499.852,855
		S855.17,695.918,855.17,499.681S696.089,144.363,499.852,144.363z M236.031,509.275c-3.379,5.69-9.514,9.171-16.131,9.153
		l-22.872-0.043c-10.347-0.017-18.721-8.418-18.704-18.764c0.017-10.347,8.418-18.721,18.764-18.704l22.872,0.05
		c10.348,0.019,18.72,8.423,18.701,18.771C238.655,503.095,237.746,506.389,236.031,509.275z M481.496,198.371
		c0.018-10.347,8.42-18.72,18.766-18.702c10.347,0.018,18.72,8.42,18.702,18.766l-0.05,22.872
		c-0.016,10.344-8.414,18.716-18.757,18.7c-10.34-0.014-18.718-8.407-18.704-18.747l0-0.01L481.496,198.371z M272.633,272.05
		c5.308-5.285,13.895-5.273,19.187,0.028l11.683,11.726c5.287,5.304,5.272,13.89-0.032,19.177s-13.89,5.272-19.177-0.032
		l-11.686-11.726C267.321,285.922,267.332,277.338,272.633,272.05z M303.474,715.598l-11.722,11.683
		c-5.304,5.287-13.89,5.272-19.177-0.032c-5.287-5.304-5.272-13.89,0.032-19.177l11.726-11.683
		c5.268-5.322,13.853-5.366,19.175-0.098c5.322,5.268,5.366,13.853,0.098,19.175C303.562,715.511,303.518,715.554,303.474,715.598z
		 M518.911,800.992c-0.016,10.344-8.414,18.716-18.757,18.7c-10.342-0.014-18.718-8.407-18.704-18.747l0.043-22.89
		c0.017-10.347,8.418-18.721,18.764-18.704s18.721,8.418,18.704,18.764L518.911,800.992z M569.096,499.5
		c-0.01,38.171-30.96,69.113-69.131,69.113c-0.856,0-1.702-0.036-2.551-0.064c-65.354,86.172-123.932,143.193-138.837,132.768
		c-14.906-10.425,18.69-84.95,77.346-175.79c-14.374-35.371,2.646-75.697,38.017-90.071c8.266-3.359,17.103-5.086,26.026-5.087
		c0.871,0,1.734,0.036,2.597,0.068c65.244-85.969,123.679-142.838,138.574-132.402s-18.597,84.765-77.104,175.442
		C567.389,481.742,569.109,490.58,569.096,499.5z M727.776,727.315c-5.295,5.29-13.88,5.29-19.17-0.005
		c-0.007-0.007-0.015-0.015-0.015-0.015l-11.694-11.733c-5.212-5.38-5.076-13.966,0.303-19.178c5.272-5.107,13.65-5.094,18.905,0.03
		l11.683,11.726C733.08,713.439,733.074,722.024,727.776,727.315z M727.81,291.305l-11.733,11.672
		c-5.408,5.182-13.994,4.999-19.176-0.41c-5.039-5.258-5.025-13.557,0.031-18.799l11.726-11.683
		c5.301-5.29,13.886-5.281,19.175,0.02c5.293,5.3,5.295,13.889-0.002,19.177C727.825,291.29,727.817,291.298,727.81,291.305z
		 M803.958,517.813L781.9,517.76c-9.985-0.017-18.065-8.124-18.048-18.109c0.017-9.985,8.124-18.065,18.109-18.048l22.072,0.046
		c9.983,0.016,18.062,8.121,18.047,18.103c-0.014,9.979-8.114,18.075-18.093,18.061
		C803.977,517.813,803.968,517.813,803.958,517.813z"/>
</g>
</svg>
