<?xml version="1.0" encoding="utf-8"?>
<!-- Generator: Adobe Illustrator 22.0.1, SVG Export Plug-In . SVG Version: 6.00 Build 0)  -->
<svg version="1.1" id="Vrstva_1" xmlns="http://www.w3.org/2000/svg" xmlns:xlink="http://www.w3.org/1999/xlink" x="0px" y="0px"
	 viewBox="0 0 1000 1000" enable-background="new 0 0 1000 1000" xml:space="preserve">
<g>
	<path fill="#BDD4DF" d="M371.965,645.326c11.564,3.861,23.683,22.955,23.354,31.102c-0.167,4.144-7.52,2.012-16.865,3.231
		c-10.546,1.377-14.41,3.058-18.457,4.284c-7.012,2.133-13.198-0.849-16.012-7.003c-2.246-4.906-4.402-10.014-7.224-15.742
		c-2.444-4.965-2.922-6.928,0.627-9.784C345.898,644.566,362.097,642.031,371.965,645.326z"/>
	<path fill="#BDD4DF" d="M341.925,697.251c7.035,2.618,8.137,10.104,14.19,23.334c6.812,14.887,2.822,24.673-14.498,28.262
		c-25.002,5.179-28.089,15.872-37.02,12.547c-7.351-2.735-14.08-14.069-14.619-28.954c-0.247-6.876,2.902-16.312,16.089-25.244
		C314.633,701.396,332.331,693.678,341.925,697.251"/>
	<path fill="#BDD4DF" d="M784.802,375.046c94.646,42.416,273.069,199.263,166.197,187.947c-93.066-9.854-91.201-8.981-136.476,0.857
		c-45.274,9.842-103.139,5.452-155.119,50.392c-103.802,89.748-179.911,102.115-215.557,108.25
		c-16.759,2.885-17.567-1.933-20.039-7.703c-2.026-4.734-6.201-16.358-9.184-20.349c-4.008-5.368-2.135-12.312,3.899-20.097
		c34.133-44.035,59.069-56.059,97.287-92.659c37.749-36.145,15.042-42.204,83.178-129.396
		C674.479,355.687,749.094,359.044,784.802,375.046"/>
	<path fill="#BDD4DF" d="M277.983,713.682c-1.664,11.059-60.272,28.001-74.253,30.172c-15.995,2.486-50.976-0.548-71.4-4.934
		c-52.968-11.367-103.85,4.223-114.019-5.725c-19.929-19.492,93.779-92.519,160.143-73.041c35.013,10.274,57.834,4.52,77.63,15.946
		C268.668,683.366,278.854,707.881,277.983,713.682"/>
	<path fill="#BDD4DF" d="M104.161,64.678c-0.552,1.154-0.998,2.354-1.333,3.608c-4.708,17.57,112.82,79.769,177.455,192.941
		c64.634,113.174,28.598,269.756,27.463,289.794c-1.188,20.985,5.457,75.529,19.516,88.715c8.465,7.94,34.785-3.33,38.432-9.439
		c5.105-8.577,1.799-18.231,4.465-40.589c1.778-14.911,61.262-149.665,55.709-180.085c-5.556-30.42-23.666-82.819-31.318-121.569
		c-7.652-38.75-33.44-150.906-83.879-215.872c-6.3-8.112-48.281-62.681-60.643-52.99C225.32,38.558,120.251,31.041,104.161,64.678"
		/>
	<path fill="#BDD4DF" d="M323.661,652.21c6.239,2.335,6.747,4.87,9.184,10.685c2.296,5.478,2.987,6.659,6.572,14.88
		c1.851,4.245,2.875,12.17-6.896,13.653c-9.207,1.393-19.199,5.84-30.446,12.912c-7.159,4.505-11.177,9.04-15.372,5.691
		c-4.205-3.342-10.163-17.565-9.365-28.43c0.784-10.638,4.7-18.388,16.051-24.165C301.313,653.405,313.21,648.321,323.661,652.21"/>
	<path fill="#BDD4DF" d="M396.04,686.773c7.602,2.815,17.076,13.896,20.516,26.156c3.635,12.942-1.647,15.857-4.476,19.509
		c-5.259,6.782-28.27,11.621-34.923,9.144c-6.336-2.36-11.243-9.815-14.646-17.69c-4.762-11.006-10.708-23.429-6.951-28.664
		c4.174-5.815,8.148-6.649,16.614-8.946C378.748,684.498,389.086,684.186,396.04,686.773"/>
	<path fill="#BDD4DF" d="M356.429,752.954c8.265,2.414,9.801,6.034,15.695,22.809c6.955,19.78,10.776,35.494,12.202,49.877
		c1.456,14.683-1.216,25.649-7.187,44.567c-15.482,49.066-12.118,94.678-23.138,104.269c-7.099,6.183-18.984,10.18-23.617,4.857
		c-12.661-14.541-61.103-79.577-38.676-135.226c10.456-25.942,10.417-41.025,14.613-54.115
		c7.825-24.409,13.837-29.312,29.616-34.481C345.269,752.454,351.642,751.556,356.429,752.954"/>
</g>
</svg>
