<?xml version="1.0" encoding="utf-8"?>
<!-- Generator: Adobe Illustrator 22.0.1, SVG Export Plug-In . SVG Version: 6.00 Build 0)  -->
<svg version="1.1" id="Vrstva_1" xmlns="http://www.w3.org/2000/svg" xmlns:xlink="http://www.w3.org/1999/xlink" x="0px" y="0px"
	 viewBox="0 0 1000 1000" enable-background="new 0 0 1000 1000" xml:space="preserve">
<path fill="#BDD4DF" d="M422.338,852.48c-104.146-24.505-171.532-90.667-221.768-172.758
	c-50.234-82.091-68.613-180.109-37.982-291.606S269.184,221.484,352.499,176.15c47.785-24.504,122.523-37.982,170.309-36.757
	c49.009,1.225,140.901-1.225,234.02,91.893c51.46,51.46,77.189,139.677,85.767,172.758c13.478,58.811,14.702,128.649-7.352,204.614
	c-19.604,75.964-74.739,136.001-113.946,166.632C650.231,831.651,546.087,880.66,422.338,852.48z M624.502,261.916
	c0,0-11.027-4.901-69.839-4.901c-58.811,0-110.271,46.559-110.271,106.595v75.965h-77.189v85.766h77.189v226.669h91.893V527.792
	h74.74l13.478-86.992h-88.218v-62.487c0-24.505,13.479-37.982,35.532-37.982h52.686V261.916z"/>
</svg>
