<?xml version="1.0" encoding="utf-8"?>
<!-- Generator: Adobe Illustrator 22.0.1, SVG Export Plug-In . SVG Version: 6.00 Build 0)  -->
<svg version="1.1" id="Vrstva_1" xmlns="http://www.w3.org/2000/svg" xmlns:xlink="http://www.w3.org/1999/xlink" x="0px" y="0px"
	 viewBox="0 0 1000 1000" enable-background="new 0 0 1000 1000" xml:space="preserve">
<path fill="#BDD4DF" d="M929.904,437.513v124.974c0,9.802-8.577,18.378-18.379,18.378h-521.95l198.488,171.533
	c9.802,8.576,8.576,19.604,1.226,28.18l-96.794,98.019c-7.352,7.352-18.379,8.577-25.729,1.226L78.366,518.379
	c-11.027-11.027-11.027-25.73,0-36.757l388.399-361.444c7.351-7.351,18.378-6.126,25.729,1.226l96.794,98.019
	c7.351,8.577,8.576,19.604-1.226,28.181L389.575,419.135h521.95C921.327,419.135,929.904,427.711,929.904,437.513z"/>
</svg>
